<?xml version="1.0" encoding="utf-8"?>
<!-- Generator: Adobe Illustrator 24.0.2, SVG Export Plug-In . SVG Version: 6.00 Build 0)  -->
<svg version="1.1" id="Capa_1" xmlns="http://www.w3.org/2000/svg" xmlns:xlink="http://www.w3.org/1999/xlink" x="0px" y="0px"
	 viewBox="0 0 1004.1 201.3" style="enable-background:new 0 0 1004.1 201.3;" xml:space="preserve">
<style type="text/css">
	.st0{fill:#684A98;}
	.st1{fill:#C8D521;}
	.st2{fill:#859EAF;}
	.st3{fill:none;}
</style>
<path class="st0" d="M101.7,198h-2.2c-0.1,0-0.1,0-0.2,0c-26-0.5-48.6-10.1-67.1-28.6c-19-18.8-28.6-41.9-28.6-68.7
	c0-26.7,9.6-49.8,28.6-68.7C50.8,13.8,73.3,4.3,99.3,3.8c0.1,0,0.1,0,0.2,0c4.3,0,7.9,3.5,8,7.8c0.1,4.4-3.4,8.1-7.8,8.1
	c-22.1,0.5-40.5,8.2-56.2,23.8c-16.1,16-23.9,34.7-23.9,57.3c0,22.6,7.8,41.4,23.9,57.3c15.7,15.6,34,23.4,56.1,23.9h2.1
	c22.8,0,41.7-7.8,57.8-23.9c16.2-16,24.1-34.7,24.1-57.3v-1c0-4.4,3.6-8,8-8c4.4,0,8,3.6,8,8v1c0,26.8-9.7,49.9-28.8,68.7
	C151.8,188.4,128.5,198,101.7,198z"/>
<path class="st1" d="M98.5,170.8c-0.1,0-0.3,0-0.4,0c-17.7-0.8-33.2-7.7-45.9-20.5c-13.6-13.6-20.5-30.2-20.5-49.5
	c0-19.2,6.9-35.9,20.5-49.5C64.9,38.6,80.3,31.7,98,30.9c1.2-0.1,2.5-0.1,3.7-0.1c19.2,0,35.8,6.9,49.4,20.5
	c13.3,13.3,20.3,29.6,20.5,48.4c0.1,4.4-3.5,8-7.9,8.1c0,0-0.1,0-0.1,0c-4.4,0-7.9-3.5-8-7.9c-0.2-14.7-5.4-26.9-15.9-37.4
	c-10.6-10.6-23.1-15.8-38.1-15.8c-0.9,0-1.9,0-2.8,0.1c-0.1,0-0.1,0-0.2,0C85,47.5,73.4,52.6,63.4,62.6
	c-10.6,10.7-15.8,23.2-15.8,38.2c0,15.1,5.2,27.6,15.8,38.2c10,10,21.6,15.2,35.4,15.9c4.4,0.2,7.8,3.9,7.6,8.3
	C106.2,167.5,102.7,170.8,98.5,170.8z"/>
<path class="st2" d="M101.6,142.9c-11.5,0-21.6-4.2-29.7-12.3c-8.2-8.2-12.3-18.1-12.3-29.7c0-11.5,4.1-21.5,12.3-29.7
	c8.2-8.2,18.2-12.3,29.8-12.3c11.5,0,21.5,4.1,29.7,12.3c8.2,8.2,12.3,18.2,12.3,29.7c0,11.6-4.2,21.6-12.4,29.7
	C123.2,138.7,113.2,142.9,101.6,142.9z M101.6,74.8c-7.3,0-13.3,2.5-18.5,7.6c-5.1,5.1-7.6,11.2-7.6,18.4c0,7.3,2.5,13.3,7.6,18.4
	c5.2,5.2,11.2,7.7,18.5,7.7c7.3,0,13.3-2.5,18.4-7.7c5.2-5.2,7.7-11.2,7.7-18.4c0-7.3-2.5-13.3-7.7-18.5
	C114.9,77.3,108.9,74.8,101.6,74.8z"/>
<path class="st0" d="M270.5,124c-15.3,0-25.7-10.3-25.7-24.2c0-14,10.4-24.3,25.7-24.3c5.4,0,10.4,1.6,14.7,4.1l-3.3,9.2
	c-3.5-1.9-7.4-3.1-11.2-3.1c-8.8,0-14.2,5.4-14.2,14.1s5.4,14.1,14.2,14.1c3.8,0,8.2-1.3,11.7-3.5l3.3,9.2
	C281.5,122.3,275.9,124,270.5,124z"/>
<path class="st0" d="M318.8,124c-14.5,0-23.8-10.4-23.8-24.2c0-13.8,9.7-24.3,24.3-24.3c14.5,0,23.8,10.4,23.8,24.3
	C343.1,113.5,333.3,124,318.8,124z M319,85.2c-7.4,0-12.4,6.1-12.4,14.5c0,8.4,5,14.5,12.4,14.5s12.4-6.1,12.4-14.5
	C331.4,91.3,326.4,85.2,319,85.2z"/>
<path class="st0" d="M396.6,124.1l-28.3-25.4v24.5h-10.9V75.6l1.5-0.3l27.9,25.2V76.3h10.9v47.6L396.6,124.1z"/>
<path class="st0" d="M424.6,86.3v10.4h16.1v9.5h-16.1v17h-10.9V76.3h29.7v10H424.6z"/>
<path class="st0" d="M456.4,123.2V76.3h10.9v46.9H456.4z"/>
<path class="st0" d="M512.2,123.2l-3.5-8.5h-16.2l-3.5,8.5h-11.1l22.1-47.3h1.5l22.1,47.3H512.2z M500.6,95.1l-4.7,11.3h9.3
	L500.6,95.1z"/>
<path class="st0" d="M572.9,124.1l-28.3-25.4v24.5h-10.9V75.6l1.5-0.3l27.9,25.2V76.3H574v47.6L572.9,124.1z"/>
<path class="st0" d="M603.9,113.3h22.5v9.9h-39.8l-0.3-1.2l23.2-35.8h-21.6v-10h38.9l0.3,1.2L603.9,113.3z"/>
<path class="st0" d="M667.8,123.2l-3.5-8.5h-16.2l-3.5,8.5h-11.1l22.1-47.3h1.5l22.1,47.3H667.8z M656.2,95.1l-4.7,11.3h9.3
	L656.2,95.1z"/>
<path class="st2" d="M744,99c0,3.5-0.6,6.8-1.9,9.9s-3,5.7-5.1,7.9c-2.2,2.2-4.7,3.9-7.7,5.1s-6.1,1.9-9.4,1.9s-6.4-0.6-9.3-1.9
	s-5.4-3-7.6-5.1c-2.1-2.2-3.8-4.8-5.1-7.9s-1.9-6.4-1.9-9.9c0-3.5,0.6-6.8,1.9-9.9c1.3-3.1,3-5.8,5.1-7.9s4.7-3.9,7.7-5.2
	c3-1.3,6.1-1.9,9.4-1.9c3.3,0,6.4,0.6,9.3,1.9c2.9,1.3,5.5,3,7.6,5.2s3.8,4.8,5.1,7.9C743.4,92.2,744,95.5,744,99z M738.5,107.5
	c1-2.7,1.5-5.5,1.5-8.5c0-3-0.5-5.8-1.5-8.5c-1-2.7-2.4-4.9-4.1-6.9c-1.7-1.9-3.9-3.4-6.3-4.5c-2.5-1.1-5.2-1.7-8-1.7
	s-5.5,0.6-8,1.7c-2.5,1.1-4.6,2.6-6.3,4.5c-1.7,1.9-3.1,4.2-4.1,6.9c-1,2.7-1.5,5.5-1.5,8.5c0,3,0.5,5.8,1.5,8.5s2.4,4.9,4.1,6.8
	c1.7,1.9,3.8,3.4,6.3,4.5s5.1,1.7,8,1.7s5.5-0.6,8-1.7s4.6-2.6,6.3-4.5C736.1,112.4,737.5,110.2,738.5,107.5z"/>
<path class="st2" d="M804.6,123.8l-0.7,0.2l-32.2-41.1v40.3h-3.6V74.3l0.9-0.2l31.9,40.6V74.8h3.7V123.8z"/>
<path class="st2" d="M857.9,123.2h-27.3V74.8h3.7v45h23.6V123.2z"/>
<path class="st2" d="M882.9,123.2h-3.7V74.8h3.7V123.2z"/>
<path class="st2" d="M945.6,123.8l-0.7,0.2l-32.2-41.1v40.3h-3.6V74.3l0.9-0.2l31.9,40.6V74.8h3.7V123.8z"/>
<path class="st2" d="M998.9,123.2h-27.3V74.8h27.3v3.3h-23.6V97h21.3v3.3h-21.3v19.6h23.6V123.2z"/>
<rect class="st3" width="1004.1" height="201.3"/>
</svg>
