<?xml version="1.0" encoding="utf-8"?>
<!-- Generator: Adobe Illustrator 24.0.2, SVG Export Plug-In . SVG Version: 6.00 Build 0)  -->
<svg version="1.1" id="Capa_1" xmlns="http://www.w3.org/2000/svg" xmlns:xlink="http://www.w3.org/1999/xlink" x="0px" y="0px"
	 viewBox="0 0 512 512" style="enable-background:new 0 0 512 512;" xml:space="preserve">
<style type="text/css">
	.st0{fill-rule:evenodd;clip-rule:evenodd;fill:#FFFFFF;}
	.st1{fill-rule:evenodd;clip-rule:evenodd;fill:#684A98;}
	.st2{fill-rule:evenodd;clip-rule:evenodd;fill:#859EAF;}
	.st3{fill:#684A98;}
	.st4{fill:#C8D521;}
	.st5{fill:#859EAF;}
</style>
<g>
	<circle class="st0" cx="256.3" cy="256.1" r="245.1"/>
	<path class="st1" d="M395.5,380.7h7.2l-3.6-8.4L395.5,380.7z M397.7,357h2.8l15.8,34.4h-8.8l-2-4.1h-12.8l-1.9,4.1h-9L397.7,357z
		 M348.2,364.1v-6.8h25l0.5,1.1l-14.6,26.2h13.7v6.8H347l-0.6-1.1l15-26.2H348.2z M328.5,357.3h8v34.1l-1.8,0.5L315.2,374v17.4h-8
		v-34.1l1.9-0.5l19.4,17.8V357.3z M174.8,357.3l1.9-0.5l19.4,17.8v-17.3h8v34.1l-1.8,0.5L182.7,374v17.4h-8V357.3z M155.2,368.7
		c-0.9-1.6-2.2-2.8-3.6-3.6c-1.5-0.8-3-1.2-4.7-1.2c-1.7,0-3.3,0.4-4.7,1.2c-1.5,0.9-2.7,2.1-3.6,3.6c-0.9,1.6-1.4,3.5-1.4,5.7
		c0,2.2,0.5,4.1,1.4,5.7c0.9,1.5,2.1,2.7,3.6,3.5c1.4,0.9,3,1.3,4.7,1.3c1.6,0,3.2-0.4,4.7-1.3c1.5-0.8,2.7-2,3.6-3.5
		c0.9-1.6,1.4-3.5,1.4-5.7C156.5,372.1,156.1,370.2,155.2,368.7z M129.9,381.1c-0.9-2.1-1.3-4.4-1.3-6.8c0-2.4,0.4-4.7,1.3-6.8
		c0.9-2.2,2.1-4,3.7-5.7c1.6-1.6,3.6-2.9,5.8-3.8c2.2-0.9,4.7-1.4,7.4-1.4c2.7,0,5.2,0.5,7.4,1.4c2.2,0.9,4.2,2.2,5.8,3.8
		c1.6,1.6,2.9,3.5,3.8,5.7c0.9,2.1,1.3,4.4,1.3,6.8c0,2.4-0.4,4.7-1.3,6.8c-0.9,2.2-2.2,4-3.8,5.7c-0.1,0.1-0.2,0.2-0.3,0.3
		c-1.6,1.5-3.4,2.7-5.5,3.6c-2.2,0.9-4.7,1.4-7.4,1.4c-2.7,0-5.2-0.5-7.4-1.4c-2.1-0.9-4-2-5.5-3.6c-0.1-0.1-0.2-0.2-0.3-0.3
		C132,385.2,130.8,383.3,129.9,381.1z M280.7,357h2.8l15.8,34.4h-8.8l-2-4.1h-12.8l-1.9,4.1h-9L280.7,357z M285.6,380.7l-3.6-8.4
		l-3.6,8.4H285.6z M248.3,357.3h8v34.1h-8V357.3z M236.6,377.6h-10.6v13.8h-8v-34.1h21.5v6.8h-13.5v6.7h10.6V377.6z M94.8,361.4
		c1.7-1.6,3.6-2.7,5.8-3.5c2.2-0.8,4.5-1.2,6.8-1.3c2.4,0,4.5,0.4,6.3,0.9c1.8,0.6,3.2,1.3,4.4,2.1c1.1,0.8,2,1.6,2.6,2.2l-4.9,5.8
		c-0.3-0.4-0.8-0.8-1.6-1.4c-0.7-0.6-1.6-1.1-2.8-1.7c-1.1-0.5-2.5-0.7-4-0.7c-1.9,0-3.6,0.5-5.1,1.4c-1.4,0.9-2.6,2.1-3.4,3.7
		c-0.9,1.6-1.3,3.3-1.3,5.2c0,1.9,0.4,3.6,1.1,5.2c0.7,1.6,1.8,2.9,3.4,3.9c1.4,1,3.3,1.5,5.5,1.6c1.3,0,2.5-0.3,3.6-0.7
		c1.1-0.4,2-0.9,2.8-1.5c0.8-0.6,1.4-1.1,1.8-1.6l4.9,5.2c-0.2,0.3-0.5,0.5-0.7,0.8c-0.5,0.5-1.2,1.1-1.9,1.7
		c-1.2,0.9-2.7,1.7-4.5,2.3c-1.8,0.6-4,1-6.5,1c-3.4,0-6.4-0.8-9.1-2.3c-1.3-0.8-2.5-1.7-3.6-2.7c-1.1-1-2.1-2.2-2.9-3.6
		c-1.6-2.7-2.4-5.8-2.4-9.3c0-2.7,0.5-5.1,1.6-7.3C91.6,364.7,93,362.9,94.8,361.4z"/>
	<path class="st2" d="M324.1,404.4l7.4-0.1v38.9l-1.7,0.5l-23.4-23.6v23.1h-7.4v-38.9l1.7-0.5l23.3,23.6V404.4z M370,410.8h-16.7
		v9.6h13.8v6.3h-13.8V437h17.3v6.3h-24.8v-38.9H370V410.8z M262.6,437v6.3h-23.4v-38.8h7.4V437H262.6z M275.4,404.4h7.5v38.9h-7.5
		V404.4z M169.2,416.7c-1.2-2-2.7-3.6-4.7-4.7c-1.9-1.1-3.9-1.7-6.1-1.7c-2.2,0-4.3,0.6-6.2,1.7c-1.9,1.1-3.4,2.6-4.6,4.7
		c-1.2,2-1.8,4.4-1.8,7.2c0,2.7,0.6,5.1,1.8,7.2c1.2,2,2.7,3.5,4.6,4.6c1.9,1.1,4,1.6,6.2,1.7c2.2,0,4.3-0.6,6.1-1.7
		c1.9-1.1,3.5-2.6,4.7-4.6c1.2-2,1.8-4.4,1.8-7.2C171,421.1,170.4,418.7,169.2,416.7z M169,406.4c3.1,1.8,5.5,4.3,7.3,7.3
		c1.8,3.1,2.7,6.5,2.7,10.2c0,3.7-0.9,7.1-2.7,10.2c-1.8,3.1-4.2,5.5-7.3,7.3c-3.1,1.8-6.7,2.7-10.7,2.8c-4,0-7.6-1-10.7-2.8
		c-3.1-1.8-5.5-4.2-7.2-7.3c-1.8-3.1-2.6-6.5-2.6-10.2c0-3.7,0.9-7.1,2.6-10.2c1.8-3,4.2-5.4,7.2-7.3c3.1-1.8,6.7-2.7,10.7-2.7
		C162.4,403.7,165.9,404.6,169,406.4z M192.5,404.3l1.7-0.5l23.3,23.6v-23.1l7.4-0.1v38.9l-1.7,0.5l-23.4-23.6v23.1h-7.4V404.3z"/>
	<path class="st3" d="M261.9,320h-2.8c-0.1,0-0.1,0-0.2,0c-33-0.7-61.6-12.9-85.1-36.2c-24.1-23.8-36.3-53.1-36.3-87.1
		c0-33.8,12.2-63.1,36.3-87.1c23.5-23.2,52.1-35.3,85-36c0.1,0,0.1,0,0.2,0c5.5,0,10,4.4,10.1,9.9c0.1,5.6-4.3,10.2-9.9,10.3
		c-28,0.6-51.3,10.4-71.2,30.1c-20.4,20.3-30.3,44.1-30.3,72.7c0,28.7,9.9,52.5,30.3,72.7c19.9,19.8,43.2,29.7,71.1,30.3h2.7
		c28.9,0,52.9-9.9,73.3-30.3c20.6-20.2,30.6-44,30.6-72.7v-1.2c0-5.6,4.5-10.1,10.1-10.1c5.6,0,10.1,4.5,10.1,10.1v1.2
		c0,33.9-12.3,63.2-36.6,87.1C325.4,307.8,295.9,320,261.9,320z"/>
	<path class="st4" d="M256.3,509.3c-69.6,0-129.8-24.9-179-74.2c-49.2-49.2-74.2-109.4-74.2-179c0-69.6,24.9-129.8,74.2-179
		c49.2-49.2,109.4-74.2,179-74.2c69.6,0,129.8,24.9,179,74.2c49.2,49.2,74.2,109.4,74.2,179c0,69.6-24.9,129.8-74.2,179l0,0
		c0,0,0,0,0,0C386.2,484.3,325.9,509.3,256.3,509.3z M256.3,19.1c-65.1,0-121.5,23.4-167.6,69.4c-46.1,46.1-69.4,102.4-69.4,167.6
		c0,65.1,23.4,121.5,69.4,167.6c46.1,46.1,102.4,69.4,167.6,69.4c65.1,0,121.5-23.4,167.6-69.4c0,0,0,0,0,0
		c46.1-46.1,69.4-102.4,69.4-167.6c0-65.1-23.4-121.5-69.4-167.6C377.9,42.4,321.5,19.1,256.3,19.1z"/>
	<path class="st4" d="M257.8,285.5c-0.2,0-0.3,0-0.5,0c-22.5-1.1-42.1-9.8-58.2-26c-17.2-17.2-26-38.3-26-62.7
		c0-24.4,8.7-45.5,26-62.8c16.2-16.1,35.7-24.8,58.2-25.8c1.6-0.1,3.2-0.1,4.7-0.1c24.4,0,45.4,8.7,62.7,26
		c16.9,16.9,25.7,37.6,26,61.4c0.1,5.6-4.4,10.2-10,10.3c-0.1,0-0.1,0-0.2,0c-5.5,0-10-4.4-10.1-10c-0.3-18.6-6.9-34.1-20.1-47.4
		c-13.5-13.5-29.3-20-48.4-20c-1.2,0-2.4,0-3.5,0.1c-0.1,0-0.1,0-0.2,0c-17.5,0.8-32.2,7.3-44.9,19.9c-13.5,13.5-20,29.4-20,48.5
		c0,19.1,6.6,34.9,20,48.4c12.7,12.7,27.3,19.3,44.9,20.1c5.6,0.3,9.9,5,9.6,10.6C267.6,281.3,263.1,285.5,257.8,285.5z"/>
	<path class="st5" d="M261.8,250.1c-14.6,0-27.3-5.3-37.7-15.6c-10.3-10.3-15.6-23-15.6-37.7c0-14.6,5.2-27.3,15.6-37.7
		c10.4-10.4,23.1-15.6,37.7-15.6c14.6,0,27.3,5.2,37.7,15.6c10.4,10.4,15.6,23.1,15.6,37.7c0,14.7-5.3,27.3-15.7,37.7
		C289.1,244.9,276.5,250.1,261.8,250.1z M261.8,163.8c-9.2,0-16.9,3.2-23.4,9.7c-6.5,6.5-9.6,14.2-9.6,23.4c0,9.2,3.2,16.8,9.7,23.3
		c6.5,6.5,14.2,9.7,23.4,9.7c9.2,0,16.8-3.2,23.3-9.7c6.6-6.5,9.7-14.2,9.7-23.4c0-9.2-3.2-16.9-9.7-23.4
		C278.7,166.9,271,163.8,261.8,163.8z"/>
</g>
</svg>
