<?xml version="1.0" encoding="UTF-8"?>
<svg width="55px" height="52px" viewBox="0 0 55 52" version="1.1" xmlns="http://www.w3.org/2000/svg" xmlns:xlink="http://www.w3.org/1999/xlink">
    <title>Logo</title>
    <g id="Page-1" stroke="none" stroke-width="1" fill="none" fillRule="evenodd">
        <g id="Artboard" transform="translate(-42.000000, -32.000000)" fill="#FFFFFF">
            <g id="Logo" transform="translate(42.000000, 31.999939)">
                <path d="M28.4013,16.293961 C27.7974,17.934161 26.458,20.437361 23.6803,20.4176778 L9.95813,20.4176778 C14.1446,7.31277104 10.8442,17.841661 14.9942,4.43646104 C15.7754,1.95966104 17.0834,0.205613036 19.4771,0.0150109356 C19.6453,0.00179585557 19.814,-0.00836957443 19.9816,0.00992820557 C21.3484,0.159868036 23.7066,0.971578036 24.5207,4.19961104 L28.4013,16.293961 Z" id="Path"></path>
                <path d="M21.0805,39.227161 L18.6995,46.653461 C18.1392,48.199161 17.1234,51.519161 13.6568,51.554761 L0,51.554761 C4.18651,38.449961 1.48838,47.182561 5.63791,33.777461 C6.56599,30.650561 8.35984,28.786261 10.4764,29.001761 C11.9374,29.150161 12.9435,29.546061 14.436,30.975861 C15.014,31.529361 16.2131,32.934761 17.3686,34.410261 L21.0805,39.227661 L21.0805,39.227161 Z" id="Path"></path>
                <path d="M17.7728,34.223761 L28.574,48.251561 C29.3445,49.147561 30.073,49.963861 30.9509,50.640361 C31.7255,51.237661 32.6632,51.730161 33.4413,51.588861 C36.3477,51.061761 39.0266,48.690161 37.3963,44.263661 L35.5382,38.493261 C35.5382,38.493261 32.7868,34.776261 31.1389,32.590661 C28.1317,28.598661 26.8845,29.033261 23.9295,29.005861 L12.4678,29.005861 C13.9911,29.769761 14.8467,30.444261 17.7728,34.223261 L17.7728,34.223761 Z" id="Path"></path>
                <path d="M21.6221,0.00332641557 C22.502,0.362166036 24.0152,0.998014036 25.0624,4.32465104 C27.0254,10.411761 33.4192,30.348661 37.823,44.069961 C39.09,47.983161 37.787,50.469661 34.9562,51.602561 L47.5096,51.6243711 C53.4373,51.632061 54.9541,47.240561 53.6247,43.363961 C49.3324,29.927261 45.388,17.911261 41.2157,4.43190104 C40.2835,1.42140104 38.664,0.0612693356 36.0155,0.0140001356 L21.6221,0.00332641557 Z" id="Path"></path>
            </g>
        </g>
    </g>
</svg>