<svg width="494" height="108" viewBox="0 0 494 108" fill="none" xmlns="http://www.w3.org/2000/svg">
<path fill-rule="evenodd" clip-rule="evenodd" d="M62.3994 33.9254C60.9885 37.5685 57.8446 42.8255 51.7254 42.8255H21.2423C30.2958 16.1252 23.369 36.9549 32.3406 9.64098C34.3036 3.67376 37.6724 0.518627 43.1526 0.262544C46.961 0.818196 51.4341 1.67825 54.0156 9.31726L54.1383 9.66514L54.5882 10.9794L55.0329 12.2888L55.4777 13.5934L55.9224 14.8931L56.3621 16.1928L56.8017 17.4878L57.2413 18.7778L57.681 20.0631L58.1155 21.3483L58.5551 22.6287L59.4242 25.1799L59.8587 26.4507L60.2881 27.7214L60.7226 28.9873L61.1521 30.2484L61.5815 31.5143L62.0109 32.7706L62.3994 33.9157V33.9254Z" fill="#05BFDB"/>
<path fill-rule="evenodd" clip-rule="evenodd" d="M46.4676 82.5044C44.203 88.991 41.8725 95.6888 41.4014 97.2577C40.53 100.515 37.4902 108 30.21 108H0C8.97233 81.4873 3.6933 97.8814 12.5846 70.7593C14.5705 64.7189 18.3297 61.5955 23.9279 61.4468L24.1812 61.4948L24.394 61.5331L24.6118 61.5763L24.8297 61.6243L25.0475 61.6771L25.3312 61.7394L25.5491 61.7922L25.7669 61.8546L26.1925 61.9793L26.4104 62.0513L26.6079 62.1185L26.8511 62.2192L27.0335 62.2912L27.2108 62.3632H27.2412L27.4135 62.4351H27.4439L27.6161 62.5119H27.6516L27.8188 62.5887H27.8542L28.0164 62.6702H28.0569L28.2139 62.747L28.3609 62.8238H28.4115L28.4571 62.8525L28.604 62.9341L28.6547 62.9629L28.8016 63.0445L28.8776 63.1788L29.0195 63.2603L29.0752 63.2987L29.212 63.3803L29.2728 63.4187L29.4045 63.505L29.4704 63.5434L29.668 63.673L29.7946 63.7593L29.9922 63.8985L30.0631 63.9464L30.1847 64.0376L30.3671 64.1719L30.4482 64.2295L30.5647 64.3207L30.6457 64.3878L30.7572 64.4742L30.8484 64.5462L31.051 64.7093L31.1574 64.7957L31.2537 64.8772L31.5577 65.1363L31.659 65.2323L31.7552 65.3186L31.8667 65.4146L31.963 65.5009L32.0744 65.6065L32.1656 65.688L32.3733 65.8848L32.4949 66.0047L32.581 66.0863L32.7077 66.211L32.7938 66.2926L32.9255 66.4221L33.0066 66.4989L33.1434 66.6428L33.2194 66.7196L33.3663 66.8635L33.4372 66.9403L33.5892 67.0986L33.6551 67.1706L33.8121 67.3337L33.878 67.4057L34.0401 67.5784L34.106 67.6456L34.2732 67.8279L34.334 67.8903L34.5062 68.0822L34.5619 68.1445L34.7443 68.346L34.8001 68.4036L34.9824 68.6147L35.0382 68.6675L35.2307 68.8882L35.2763 68.941L35.4789 69.1713L35.5195 69.2192L35.7272 69.4591L35.7677 69.5071L35.9856 69.7566L36.021 69.7998L36.2439 70.0589L36.2743 70.0972L36.5074 70.3707V70.3995L36.7506 70.6874V70.7162L36.9988 71.0088V71.0328L37.2572 71.3447L37.5257 71.6661L37.8043 72.002L38.0881 72.3522L38.1894 72.4722L38.2856 72.5969L38.3616 72.6833V72.7216L38.468 72.8512L38.5693 72.9759L38.6149 73.0287L38.7821 73.2398L38.8936 73.3741L38.9898 73.4941L39.1013 73.6284L39.3141 73.8827L39.4255 74.0219L39.4863 74.0986L39.5421 74.161L39.7751 74.4489L39.8055 74.4872L39.8967 74.5976L40.0132 74.7415L40.1298 74.8807L40.3729 75.1781L40.454 75.2789L40.4996 75.3317L40.6212 75.4852L40.7478 75.6387L40.7934 75.6963L40.8745 75.7922L41.0011 75.9506L41.1329 76.1089L41.2545 76.2528L41.3862 76.416L41.4875 76.5407V76.5743L41.6192 76.7374L41.756 76.8957L41.8168 76.9773L41.8877 77.0589L42.0195 77.222L42.1562 77.3899L42.1816 77.4187L42.288 77.5531L42.4248 77.7162L42.5464 77.8697L42.9061 78.3111L42.9618 78.3783L43.0986 78.5462L43.2404 78.7141L43.281 78.7717L43.5697 79.0116L44.1372 79.7025L44.2385 79.8272L44.279 79.8752L44.4209 80.0479L44.5627 80.2254L44.6235 80.2974L44.7046 80.3981L44.8515 80.5757L44.9934 80.7484L45.12 80.9019L45.2619 81.0794L45.3835 81.2282V81.2522L45.5253 81.4297L45.6722 81.6072L45.7533 81.708L45.8141 81.7847L46.1079 82.1398L46.1485 82.1877L46.2549 82.3221L46.4018 82.4996H46.4676V82.5044Z" fill="#014F9A"/>
<path fill-rule="evenodd" clip-rule="evenodd" d="M23.8976 61.491C29.1215 62.3922 31.9133 64.7792 38.1861 72.4197C43.866 79.413 56.5634 94.7802 58.4533 97.2679C60.9107 100.523 66.8136 108 71.399 108H72.1945C80.2153 106.715 84.3194 101.428 81.3452 92.6855L77.3373 80.9565C75.4373 78.4735 72.8887 75.2045 69.3571 70.7995C64.493 64.7169 61.8025 61.6396 56.0821 61.5438C45.0009 61.352 35.5919 61.5054 23.8976 61.4958V61.491Z" fill="#05BFDB"/>
<path fill-rule="evenodd" clip-rule="evenodd" d="M42.4847 0.312373C47.282 1.2438 50.745 2.05757 53.4289 9.86685C62.9573 38.344 71.4723 63.7915 80.9599 92.1657C84.0461 101.397 79.5492 106.872 70.963 107.946C82.7373 107.946 90.7073 107.985 102.293 108C115.066 108 118.788 98.2445 115.921 90.2294C106.678 62.4532 98.2139 37.6969 89.2203 9.83253C87.2137 3.60668 83.3789 0.464342 77.67 0.366297C66.624 0.160403 54.1979 0.327079 42.4847 0.312373Z" fill="#014F9A"/>
<path d="M165.753 36.6564H149.45L146.836 44.3867H135.698L151.503 0.623408H163.824L179.63 44.3867H168.367L165.753 36.6564ZM163.015 28.4274L157.602 12.4058L152.25 28.4274H163.015Z" fill="#05BFDB"/>
<path d="M210.886 21.944C213.417 22.4843 215.449 23.7519 216.984 25.7468C218.519 27.7001 219.287 29.9444 219.287 32.4796C219.287 36.1369 218.001 39.0461 215.429 41.2073C212.898 43.3269 209.351 44.3867 204.788 44.3867H184.44V0.623408H204.104C208.542 0.623408 212.006 1.64164 214.495 3.67811C217.026 5.71457 218.291 8.47835 218.291 11.9694C218.291 14.5462 217.607 16.6866 216.238 18.3905C214.91 20.0945 213.126 21.279 210.886 21.944ZM195.081 18.3282H202.05C203.792 18.3282 205.12 17.9542 206.033 17.2061C206.987 16.4164 207.464 15.2735 207.464 13.7773C207.464 12.2811 206.987 11.1382 206.033 10.3486C205.12 9.55893 203.792 9.1641 202.05 9.1641H195.081V18.3282ZM202.921 35.7836C204.705 35.7836 206.074 35.3888 207.028 34.5992C208.024 33.7679 208.522 32.5835 208.522 31.0457C208.522 29.508 208.003 28.3027 206.966 27.43C205.97 26.5572 204.581 26.1208 202.797 26.1208H195.081V35.7836H202.921Z" fill="#05BFDB"/>
<path d="M246.117 44.8231C242.01 44.8231 238.235 43.8672 234.792 41.9554C231.391 40.0436 228.673 37.3837 226.641 33.9758C224.649 30.5262 223.654 26.6611 223.654 22.3804C223.654 18.0996 224.649 14.2553 226.641 10.8473C228.673 7.43934 231.391 4.77946 234.792 2.86768C238.235 0.955893 242.01 0 246.117 0C250.224 0 253.979 0.955893 257.38 2.86768C260.824 4.77946 263.52 7.43934 265.47 10.8473C267.461 14.2553 268.457 18.0996 268.457 22.3804C268.457 26.6611 267.461 30.5262 265.47 33.9758C263.479 37.3837 260.782 40.0436 257.38 41.9554C253.979 43.8672 250.224 44.8231 246.117 44.8231ZM246.117 35.0979C249.602 35.0979 252.382 33.9342 254.456 31.6068C256.571 29.2794 257.629 26.2039 257.629 22.3804C257.629 18.5152 256.571 15.4397 254.456 13.1539C252.382 10.8265 249.602 9.66283 246.117 9.66283C242.591 9.66283 239.77 10.8057 237.655 13.0916C235.58 15.3774 234.543 18.4737 234.543 22.3804C234.543 26.2455 235.58 29.3418 237.655 31.6691C239.77 33.955 242.591 35.0979 246.117 35.0979Z" fill="#05BFDB"/>
<path d="M303.374 14.4631C302.586 13.0085 301.445 11.9071 299.951 11.159C298.499 10.3694 296.778 9.97453 294.787 9.97453C291.343 9.97453 288.585 11.1174 286.51 13.4033C284.436 15.6475 283.399 18.6607 283.399 22.4427C283.399 26.4741 284.478 29.6327 286.635 31.9185C288.834 34.1628 291.841 35.2849 295.658 35.2849C298.271 35.2849 300.47 34.6199 302.254 33.29C304.079 31.9601 305.407 30.0483 306.236 27.5546H292.733V19.6997H315.881V29.6119C315.093 32.2718 313.745 34.7446 311.837 37.0305C309.97 39.3163 307.584 41.1657 304.681 42.5788C301.777 43.9918 298.499 44.6984 294.849 44.6984C290.534 44.6984 286.676 43.7633 283.275 41.893C279.915 39.9813 277.28 37.3422 275.372 33.9758C273.505 30.6093 272.572 26.765 272.572 22.4427C272.572 18.1204 273.505 14.276 275.372 10.9096C277.28 7.50168 279.915 4.86258 283.275 2.99236C286.635 1.08057 290.472 0.12468 294.787 0.12468C300.014 0.12468 304.411 1.39228 307.979 3.92747C311.588 6.46267 313.973 9.97453 315.135 14.4631H303.374Z" fill="#05BFDB"/>
<path d="M348.968 36.6564H332.665L330.051 44.3867H318.913L334.718 0.623408H347.039L362.845 44.3867H351.582L348.968 36.6564ZM346.23 28.4274L340.817 12.4058L335.465 28.4274H346.23Z" fill="#05BFDB"/>
<path d="M384.02 0.623408C388.625 0.623408 392.649 1.53774 396.092 3.3664C399.536 5.19507 402.191 7.77182 404.057 11.0967C405.966 14.38 406.92 18.1827 406.92 22.505C406.92 26.7858 405.966 30.5886 404.057 33.9134C402.191 37.2383 399.515 39.815 396.03 41.6437C392.587 43.4723 388.584 44.3867 384.02 44.3867H367.655V0.623408H384.02ZM383.336 35.1602C387.36 35.1602 390.492 34.0589 392.732 31.8562C394.972 29.6535 396.092 26.5364 396.092 22.505C396.092 18.4737 394.972 15.3358 392.732 13.0916C390.492 10.8473 387.36 9.72517 383.336 9.72517H378.296V35.1602H383.336Z" fill="#05BFDB"/>
<path d="M433.525 44.8231C429.418 44.8231 425.643 43.8672 422.2 41.9554C418.798 40.0436 416.081 37.3837 414.048 33.9758C412.057 30.5262 411.062 26.6611 411.062 22.3804C411.062 18.0996 412.057 14.2553 414.048 10.8473C416.081 7.43934 418.798 4.77946 422.2 2.86768C425.643 0.955893 429.418 0 433.525 0C437.632 0 441.387 0.955893 444.788 2.86768C448.231 4.77946 450.928 7.43934 452.878 10.8473C454.869 14.2553 455.865 18.0996 455.865 22.3804C455.865 26.6611 454.869 30.5262 452.878 33.9758C450.886 37.3837 448.19 40.0436 444.788 41.9554C441.387 43.8672 437.632 44.8231 433.525 44.8231ZM433.525 35.0979C437.01 35.0979 439.789 33.9342 441.864 31.6068C443.979 29.2794 445.037 26.2039 445.037 22.3804C445.037 18.5152 443.979 15.4397 441.864 13.1539C439.789 10.8265 437.01 9.66283 433.525 9.66283C429.999 9.66283 427.178 10.8057 425.063 13.0916C422.988 15.3774 421.951 18.4737 421.951 22.3804C421.951 26.2455 422.988 29.3418 425.063 31.6691C427.178 33.955 429.999 35.0979 433.525 35.0979Z" fill="#05BFDB"/>
<path d="M477.59 44.8231C474.395 44.8231 471.533 44.3036 469.003 43.2645C466.472 42.2255 464.439 40.6878 462.904 38.6513C461.411 36.6148 460.623 34.1628 460.54 31.2951H471.865C472.031 32.916 472.591 34.1628 473.545 35.0355C474.499 35.8668 475.744 36.2824 477.279 36.2824C478.855 36.2824 480.1 35.9291 481.012 35.2226C481.925 34.4745 482.381 33.4562 482.381 32.1679C482.381 31.0873 482.008 30.1937 481.261 29.4872C480.556 28.7807 479.664 28.1988 478.585 27.7417C477.548 27.2845 476.055 26.765 474.105 26.1831C471.284 25.3104 468.982 24.4376 467.198 23.5648C465.414 22.6921 463.879 21.4037 462.593 19.6997C461.307 17.9957 460.664 15.7722 460.664 13.0292C460.664 8.9563 462.137 5.77692 465.082 3.49109C468.028 1.1637 471.865 0 476.594 0C481.406 0 485.285 1.1637 488.23 3.49109C491.176 5.77692 492.752 8.97708 492.96 13.0916H481.448C481.365 11.6785 480.846 10.5772 479.892 9.78751C478.938 8.9563 477.714 8.54069 476.221 8.54069C474.935 8.54069 473.898 8.89396 473.109 9.60049C472.321 10.2655 471.927 11.2421 471.927 12.5305C471.927 13.9436 472.591 15.0449 473.918 15.8346C475.246 16.6242 477.32 17.4762 480.141 18.3905C482.962 19.3464 485.244 20.2608 486.986 21.1335C488.77 22.0063 490.305 23.2739 491.591 24.9363C492.877 26.5988 493.52 28.7391 493.52 31.3574C493.52 33.8511 492.877 36.1161 491.591 38.1526C490.346 40.1891 488.521 41.8099 486.115 43.0152C483.709 44.2204 480.867 44.8231 477.59 44.8231Z" fill="#05BFDB"/>
<path d="M134.612 63.4706C134.612 57.1467 139.729 52.0202 146.041 52.0202H494V96.5494C494 102.873 488.883 108 482.571 108H134.612V63.4706Z" fill="#014F9A"/>
<path d="M147.173 96.5494V64.6029H156.542C158.458 64.6029 160.006 64.9579 161.188 65.6678C162.395 66.3777 163.274 67.4163 163.825 68.7836C164.403 70.1245 164.691 71.7547 164.691 73.6741C164.691 75.7513 164.337 77.4341 163.628 78.7225C162.92 79.9846 161.922 80.9048 160.636 81.4833C159.377 82.0617 157.881 82.351 156.148 82.351H152.999V96.5494H147.173ZM152.999 78.2492H155.204C156.253 78.2492 157.067 78.1046 157.644 77.8154C158.248 77.4998 158.655 77.0134 158.865 76.3561C159.101 75.6724 159.219 74.7653 159.219 73.6347C159.219 72.4778 159.127 71.5444 158.944 70.8344C158.786 70.0982 158.419 69.5592 157.841 69.2174C157.29 68.8756 156.411 68.7047 155.204 68.7047H152.999V78.2492Z" fill="white"/>
<path d="M168.958 96.5494L175.335 64.6029H181.555L187.933 96.5494H182.54L181.28 89.1741H175.729L174.43 96.5494H168.958ZM176.319 85.4667H180.65L178.485 72.0571L176.319 85.4667Z" fill="white"/>
<path d="M195.316 96.5494V64.6029H202.954C205.106 64.6029 206.917 64.8658 208.387 65.3917C209.882 65.8913 211.011 66.759 211.772 67.9948C212.559 69.2306 212.953 70.9133 212.953 73.0431C212.953 74.3315 212.835 75.4884 212.599 76.5138C212.363 77.5393 211.956 78.4201 211.378 79.1563C210.827 79.8662 210.053 80.4184 209.056 80.8128L213.504 96.5494H207.678L203.82 81.9171H201.143V96.5494H195.316ZM201.143 78.2492H202.954C204.082 78.2492 204.975 78.0914 205.631 77.7759C206.313 77.4341 206.799 76.9082 207.087 76.1983C207.376 75.4621 207.52 74.5287 207.52 73.3981C207.52 71.7942 207.219 70.5978 206.615 69.809C206.038 68.9939 204.922 68.5864 203.269 68.5864H201.143V78.2492Z" fill="white"/>
<path d="M220.1 96.5494L226.478 64.6029H232.698L239.075 96.5494H233.682L232.422 89.1741H226.871L225.572 96.5494H220.1ZM227.462 85.4667H231.792L229.627 72.0571L227.462 85.4667Z" fill="white"/>
<path d="M263.551 96.5494V68.9019H258.473V64.6029H274.377V68.9019H269.377V96.5494H263.551Z" fill="white"/>
<path d="M290.348 96.9833C287.986 96.9833 286.149 96.5494 284.837 95.6817C283.524 94.814 282.619 93.5783 282.12 91.9744C281.622 90.3705 281.372 88.451 281.372 86.2161V64.6029H287.041V86.8866C287.041 87.8857 287.107 88.8323 287.238 89.7263C287.369 90.594 287.671 91.3039 288.143 91.856C288.642 92.3819 289.377 92.6448 290.348 92.6448C291.372 92.6448 292.106 92.3819 292.553 91.856C293.025 91.3039 293.327 90.594 293.458 89.7263C293.616 88.8323 293.694 87.8857 293.694 86.8866V64.6029H299.324V86.2161C299.324 88.451 299.074 90.3705 298.576 91.9744C298.077 93.5783 297.172 94.814 295.859 95.6817C294.573 96.5494 292.736 96.9833 290.348 96.9833Z" fill="white"/>
<path d="M316.268 96.9833C314.352 96.9833 312.751 96.6151 311.465 95.8789C310.179 95.1164 309.208 94.0121 308.552 92.566C307.896 91.1198 307.528 89.345 307.45 87.2415L312.449 86.2555C312.502 87.4913 312.646 88.5825 312.882 89.5291C313.145 90.4756 313.525 91.2118 314.024 91.7377C314.549 92.2373 315.231 92.4871 316.071 92.4871C317.016 92.4871 317.685 92.211 318.079 91.6588C318.472 91.0804 318.669 90.3573 318.669 89.4896C318.669 88.0961 318.354 86.9523 317.724 86.0583C317.095 85.1644 316.255 84.2704 315.205 83.3764L311.189 79.8268C310.061 78.8539 309.155 77.7759 308.473 76.5927C307.817 75.3832 307.489 73.8976 307.489 72.136C307.489 69.6118 308.224 67.6661 309.694 66.2988C311.163 64.9316 313.171 64.2479 315.717 64.2479C317.213 64.2479 318.459 64.4846 319.457 64.9579C320.454 65.4049 321.241 66.0359 321.819 66.851C322.422 67.6661 322.869 68.5995 323.157 69.6512C323.446 70.6767 323.63 71.7679 323.708 72.9248L318.748 73.7925C318.696 72.7933 318.577 71.8993 318.394 71.1105C318.236 70.3217 317.934 69.7038 317.488 69.2569C317.068 68.8099 316.438 68.5864 315.599 68.5864C314.733 68.5864 314.063 68.8756 313.591 69.454C313.145 70.0062 312.922 70.703 312.922 71.5444C312.922 72.6224 313.145 73.5164 313.591 74.2263C314.037 74.9099 314.68 75.6199 315.52 76.3561L319.496 79.8662C320.808 80.9706 321.924 82.2721 322.842 83.7708C323.787 85.2432 324.26 87.0312 324.26 89.1347C324.26 90.6597 323.918 92.0138 323.236 93.197C322.58 94.3802 321.648 95.3136 320.441 95.9972C319.26 96.6546 317.869 96.9833 316.268 96.9833Z" fill="white"/>
<path d="M345.616 96.5494V64.6029H353.135C355.734 64.6029 357.754 64.9579 359.198 65.6678C360.668 66.3777 361.704 67.4689 362.308 68.9413C362.938 70.4137 363.253 72.2806 363.253 74.5418V86.2161C363.253 88.5299 362.938 90.4625 362.308 92.0138C361.704 93.5388 360.681 94.6826 359.237 95.4451C357.82 96.1813 355.865 96.5494 353.372 96.5494H345.616ZM351.443 92.4871H353.214C354.553 92.4871 355.511 92.2504 356.088 91.7772C356.665 91.3039 357.02 90.6202 357.151 89.7263C357.282 88.806 357.348 87.6885 357.348 86.3739V74.1474C357.348 72.859 357.256 71.8205 357.072 71.0317C356.888 70.2429 356.508 69.6644 355.93 69.2963C355.353 68.9282 354.421 68.7441 353.135 68.7441H351.443V92.4871Z" fill="white"/>
<path d="M371.86 96.5494V64.6029H385.245V68.7047H377.687V77.8942H383.631V81.9566H377.687V92.5265H385.324V96.5494H371.86Z" fill="white"/>
<path d="M401.769 96.9833C399.407 96.9833 397.57 96.5494 396.258 95.6817C394.945 94.814 394.04 93.5783 393.541 91.9744C393.043 90.3705 392.793 88.451 392.793 86.2161V64.6029H398.462V86.8866C398.462 87.8857 398.528 88.8323 398.659 89.7263C398.79 90.594 399.092 91.3039 399.565 91.856C400.063 92.3819 400.798 92.6448 401.769 92.6448C402.793 92.6448 403.527 92.3819 403.974 91.856C404.446 91.3039 404.748 90.594 404.879 89.7263C405.037 88.8323 405.115 87.8857 405.115 86.8866V64.6029H410.745V86.2161C410.745 88.451 410.496 90.3705 409.997 91.9744C409.498 93.5783 408.593 94.814 407.281 95.6817C405.995 96.5494 404.157 96.9833 401.769 96.9833Z" fill="white"/>
<path d="M419.658 96.5494V64.6029H427.177C429.775 64.6029 431.796 64.9579 433.24 65.6678C434.71 66.3777 435.746 67.4689 436.35 68.9413C436.98 70.4137 437.295 72.2806 437.295 74.5418V86.2161C437.295 88.5299 436.98 90.4625 436.35 92.0138C435.746 93.5388 434.723 94.6826 433.279 95.4451C431.862 96.1813 429.907 96.5494 427.413 96.5494H419.658ZM425.484 92.4871H427.256C428.594 92.4871 429.552 92.2504 430.13 91.7772C430.707 91.3039 431.061 90.6202 431.193 89.7263C431.324 88.806 431.39 87.6885 431.39 86.3739V74.1474C431.39 72.859 431.298 71.8205 431.114 71.0317C430.93 70.2429 430.55 69.6644 429.972 69.2963C429.395 68.9282 428.463 68.7441 427.177 68.7441H425.484V92.4871Z" fill="white"/>
<path d="M444.057 96.5494L450.435 64.6029H456.655L463.032 96.5494H457.639L456.379 89.1741H450.829L449.529 96.5494H444.057ZM451.419 85.4667H455.749L453.584 72.0571L451.419 85.4667Z" fill="white"/>
<path d="M478.447 96.9833C476.531 96.9833 474.93 96.6151 473.644 95.8789C472.358 95.1164 471.387 94.0121 470.731 92.566C470.075 91.1198 469.707 89.345 469.629 87.2415L474.628 86.2555C474.681 87.4913 474.825 88.5825 475.061 89.5291C475.324 90.4756 475.704 91.2118 476.203 91.7377C476.728 92.2373 477.41 92.4871 478.25 92.4871C479.195 92.4871 479.864 92.211 480.258 91.6588C480.652 91.0804 480.848 90.3573 480.848 89.4896C480.848 88.0961 480.534 86.9523 479.904 86.0583C479.274 85.1644 478.434 84.2704 477.384 83.3764L473.369 79.8268C472.24 78.8539 471.335 77.7759 470.652 76.5927C469.996 75.3832 469.668 73.8976 469.668 72.136C469.668 69.6118 470.403 67.6661 471.873 66.2988C473.342 64.9316 475.35 64.2479 477.896 64.2479C479.392 64.2479 480.639 64.4846 481.636 64.9579C482.633 65.4049 483.421 66.0359 483.998 66.851C484.602 67.6661 485.048 68.5995 485.336 69.6512C485.625 70.6767 485.809 71.7679 485.888 72.9248L480.927 73.7925C480.875 72.7933 480.757 71.8993 480.573 71.1105C480.415 70.3217 480.114 69.7038 479.667 69.2569C479.248 68.8099 478.618 68.5864 477.778 68.5864C476.912 68.5864 476.242 68.8756 475.77 69.454C475.324 70.0062 475.101 70.703 475.101 71.5444C475.101 72.6224 475.324 73.5164 475.77 74.2263C476.216 74.9099 476.859 75.6199 477.699 76.3561L481.675 79.8662C482.987 80.9706 484.103 82.2721 485.021 83.7708C485.966 85.2432 486.439 87.0312 486.439 89.1347C486.439 90.6597 486.098 92.0138 485.415 93.197C484.759 94.3802 483.827 95.3136 482.62 95.9972C481.439 96.6546 480.048 96.9833 478.447 96.9833Z" fill="white"/>
</svg>
